PathFileType	4	(X/Y/Z)	C:/Users/beibeiliu/ov580/test_trc/User3\sequence.27_training_dense_right.trc
DataRate	CameraRate	NumFrames	NumMarkers	Units	OrigDataRate	OrigDataStartFrame	OrigNumFrames
120	120	20	19	mm	120	104	276
Frame#	Time	ThumbCMC			ThumbMCP			ThumbIP			ThumbTip			IndexMCP			IndexPIP			IndexTip			MiddleMCP			MiddlePIP			MiddleTip			RingMCP			RingPIP			RingTip			PinkyMCP			PinkyPIP			PinkyTip			BackHand1			BackHand2			BackHand3	
		X0	Y0	Z0	X1	Y1	Z1	X2	Y2	Z2	X3	Y3	Z3	X4	Y4	Z4	X5	Y5	Z5	X6	Y6	Z6	X7	Y7	Z7	X8	Y8	Z8	X9	Y9	Z9	X10	Y10	Z10	X11	Y11	Z11	X12	Y12	Z12	X13	Y13	Z13	X14	Y14	Z14	X15	Y15	Z15	X16	Y16	Z16	X17	Y17	Z17	X18	Y18	Z18	
103	0.858333	178.688	-44.213	2.84496	172.523	-62.4965	-27.383	182.034	-83.4783	-49.1538	202.105	-104.227	-53.4034	229.566	-44.8334	-59.7943	233.644	-46.9074	-87.1649	239.05	-53.2215	-111.003	244.423	-58.1382	-58.6034	245.321	-62.4621	-88.433	246.759	-71.4579	-117.316	235.31	-85.9447	-48.4566	215.241	-106.991	-50.4614	197.836	-100.065	-22.1475	236.365	-103.002	-29.8835	211.676	-111.504	-29.3951	196.646	-99.1512	-5.31169	246.122	-57.904	1.82517	236.286	-53.1968	33.4212	216.936	-31.5184	7.24647	
104	0.866667	177.335	-45.5508	8.31965	167.77	-57.5971	-28.2405	182.586	-73.7186	-50.6619	201.384	-88.752	-55.3899	215.715	-25.0936	-56.566	222.306	-25.4102	-85.3579	230.627	-32.141	-107.514	233.773	-35.2946	-61.9544	238.782	-41.3963	-87.0173	241.329	-47.8718	-117.008	235.934	-68.915	-50.7075	215.073	-92.3785	-56.1735	202.88	-91.731	-24.1866	240.78	-84.679	-33.3066	216.417	-100.884	-32.7553	199.61	-88.163	-6.78703	240.863	-43.2009	4.52562	233.704	-46.7958	34.9492	211.575	-28.7923	12.1928	
105	0.875	171.249	-41.6391	9.90679	163.03	-52.1922	-25.4425	178.002	-62.8162	-53.8656	202.672	-72.682	-59.1668	203.506	-9.99324	-54.4197	206.489	-7.15009	-79.6284	212.555	-7.75177	-102.925	222.424	-17.4804	-58.9623	224.716	-18.1484	-83.0887	225.918	-19.9323	-116.624	227.284	-49.0147	-54.9487	212.428	-75.2625	-59.8023	200.511	-81.2946	-31.603	237.83	-65.964	-38.0368	214.219	-84.5227	-37.1148	202.621	-80.1207	-11.2462	233.64	-29.5252	1.56095	227.787	-35.046	33.3696	200.252	-19.4591	12.3194	
106	0.883333	161.251	-38.4096	13.1385	155.536	-45.1653	-22.5395	171.967	-49.1275	-52.3298	194.035	-56.2118	-59.2569	191.147	1.79657	-49.2381	192.528	7.72569	-72.3559	196.208	11.4968	-100.09	210.079	-1.38998	-56.8039	209.739	2.26916	-83.2088	209.004	4.53726	-116.371	218.361	-29.7876	-54.2984	209.57	-56.6924	-63.0851	197.337	-68.2981	-35.5778	233.806	-47.8643	-38.6763	214.367	-72.0487	-38.3919	205.257	-71.9368	-12.7904	228.515	-15.6671	3.27723	225.601	-26.8537	34.9354	192.204	-11.2229	15.6709	
107	0.891667	155.565	-36.0101	16.5299	152.751	-37.8419	-18.4776	164.785	-36.4863	-49.3766	187.582	-39.8101	-60.5907	173.645	14.682	-42.2235	171.357	23.9711	-69.104	175.772	27.7573	-96.6305	191.912	14.7308	-52.9108	189.381	18.242	-77.1954	191.363	22.1547	-105.802	206.668	-14.0129	-51.0052	203.562	-44.3732	-61.6159	192.183	-55.6871	-35.0802	223.695	-32.2223	-41.7806	210.175	-54.9005	-44.1511	197.39	-57.9276	-14.4621	217.132	-4.98455	5.82951	214.663	-15.4138	33.7616	181.747	-5.93993	21.9919	
108	0.9	151.636	-31.7569	20.3787	141.379	-30.2385	-16.7166	149.633	-28.3119	-47.4795	176.68	-26.8267	-56.6359	159.825	22.6806	-34.8945	156.804	34.1632	-63.6718	155.887	39.546	-89.1952	175.629	23.2728	-42.2774	175.641	30.2134	-70.3082	167.942	36.2198	-99.9473	194.068	-1.81933	-50.6275	192.914	-30.1109	-61.2567	186.511	-45.9022	-30.6397	211.021	-17.9523	-43.0732	200.281	-39.9381	-45.1325	193.47	-48.7251	-14.1052	206.697	3.41053	9.3153	204.759	-7.63255	36.6316	172.484	1.25966	26.9875	
109	0.908333	140.939	-27.3819	24.6594	131.143	-26.2199	-8.35893	139.544	-19.541	-42.4891	164.225	-17.0482	-52.7243	142.721	28.329	-27.2197	138.269	38.7936	-52.6052	136.763	47.9844	-81.4469	162.363	33.3582	-41.6604	152.301	38.6244	-64.092	149.51	46.5658	-92.5929	182.922	8.24436	-46.1263	180.334	-16.7441	-60.1729	176.342	-36.6364	-31.8435	196.898	-3.39113	-39.8703	189.247	-30.8905	-43.6648	184.813	-36.9095	-14.9229	193.709	11.6414	12.3852	199.963	-1.28958	38.8533	164.096	2.63779	31.2838	
110	0.916667	131.471	-21.7134	27.7449	120.01	-22.6431	-4.6163	122.137	-17.0035	-35.6843	148.174	-10.0875	-52.987	132.128	32.9744	-21.5518	122.026	44.1755	-48.5743	114.284	52.028	-70.9449	143.349	38.1393	-31.0209	135.683	46.2593	-61.0589	126.73	54.0122	-87.3682	166.799	16.0128	-39.6899	159.551	-12.6496	-55.6739	161.329	-29.4336	-31.1316	183.763	4.81611	-38.2343	173.89	-20.2077	-43.149	177.027	-32.6903	-13.6165	184.159	16.9321	15.6026	190.831	0.407431	41.6484	153.775	10.1245	35.2734	
111	0.925	126.793	-20.3438	33.3488	111.117	-22.1488	3.67882	109.323	-16.3702	-27.27	131.089	-9.3534	-46.3193	115.363	35.9117	-15.4197	102.939	45.7333	-39.6688	93.1518	52.3081	-62.1588	129.685	41.105	-26.5895	115.853	46.7784	-49.2499	102.829	55.3657	-80.9995	151.015	19.3558	-37.11	143.435	-7.10308	-50.7774	148.853	-26.3521	-23.0315	168.158	9.55767	-32.2716	160.297	-16.1782	-40.6416	164.529	-28.1051	-14.2811	167.481	23.1298	17.0756	184.141	7.14879	41.1042	145.41	10.8349	43.5949	
112	0.933333	118.178	-19.4367	40.9488	102.897	-19.6982	10.0937	98.7852	-16.594	-19.4106	116.419	-9.57837	-42.13	98.6718	34.0758	-6.70072	87.0402	44.1499	-31.9963	77.8574	49.506	-50.2929	109.555	40.8027	-22.3701	100.845	45.9527	-42.625	81.0761	51.9648	-68.9845	131.035	20.6923	-32.2263	127.464	-8.07921	-45.6587	137.04	-25.3329	-17.0936	154.635	10.187	-31.4029	147.517	-17.6759	-37.639	151.824	-25.2535	-8.67772	159.656	27.0023	18.9079	174.238	10.74	42.9501	136.669	12.2278	45.1821	
113	0.941667	109.677	-20.5789	50.0019	89.2329	-25.4314	19.4741	85.1108	-17.5375	-14.4025	99.5931	-14.1604	-35.5801	88.6994	34.148	-1.14545	71.2994	40.4314	-19.7897	61.6329	49.1542	-46.0367	102.174	39.1547	-16.8422	83.9035	45.0087	-40.9767	66.8336	48.4989	-59.1381	116.913	18.5063	-27.1973	116.13	-8.94291	-42.0471	123.774	-26.7618	-11.6555	138.732	7.74543	-30.8919	129.663	-18.3549	-31.0509	140.831	-27.2797	-6.13407	147.965	25.636	20.2171	165.93	8.69885	45.7818	129.628	12.1043	50.9864	
114	0.95	103.306	-18.3262	53.8613	83.3972	-24.3265	28.2179	78.1223	-21.2343	-1.75989	89.5203	-15.3139	-27.986	77.4857	32.5353	3.84285	60.969	39.1729	-17.5236	49.5411	44.778	-39.2828	90.6684	38.252	-14.6236	71.6409	39.6358	-30.7368	51.7612	43.517	-53.0948	104.623	15.4572	-23.3337	101.938	-15.377	-34.4917	113.875	-29.899	-10.0092	129.076	4.97576	-27.7158	119.702	-23.3546	-26.2741	131.744	-29.1397	-1.38762	144.342	23.5712	23.8486	156.655	13.0057	44.8512	123.256	12.7895	54.6538	
115	0.958333	100.402	-18.6277	62.9331	74.4927	-24.5	36.2193	66.2963	-23.5858	5.9474	79.7173	-20.8308	-18.7696	74.0631	30.3287	6.91007	52.7596	36.353	-13.2768	35.2657	40.2327	-33.7765	81.1076	33.8717	-9.3337	61.6309	36.3403	-32.3002	37.2912	38.306	-51.0532	101.022	9.99301	-19.9614	88.4066	-18.2194	-28.1872	104.114	-33.4721	-2.30026	116.109	-1.80657	-22.8075	106.989	-27.2465	-19.0141	118.577	-31.3718	5.98373	137.565	19.6048	23.9842	153.908	8.57144	45.4605	121.15	17.2513	53.3737	
116	0.966667	98.1304	-13.1335	62.9195	70.2714	-21.1778	40.7994	58.4122	-23.4158	10.4023	68.0053	-25.6467	-11.7261	69.7214	28.6694	7.18048	46.4866	34.2797	-12.3315	33.2605	35.3324	-34.6201	74.6483	29.5008	-9.39092	56.5676	29.6513	-31.567	35.1433	31.5292	-50.4279	89.7926	2.3789	-19.1642	81.0584	-25.6568	-23.4263	93.9336	-37.4905	3.61313	107.287	-8.62245	-19.7761	98.2896	-33.1364	-17.8382	110.05	-34.5249	11.9129	130.722	16.9236	20.2671	152.643	6.52546	46.5831	118.98	17.0028	56.6719	
117	0.975	96.5294	-11.009	64.2166	66.4927	-18.3308	45.7926	59.3423	-22.2831	15.2927	62.2804	-29.1943	-11.2072	66.7253	29.0516	3.87947	48.416	31.722	-13.5	33.9166	32.6943	-34.9995	76.6217	23.8965	-12.3369	58.5143	24.5953	-27.0753	34.6163	25.9898	-50.7608	89.421	-5.60678	-19.4226	74.7384	-31.2195	-17.7986	86.5485	-41.0449	13.8187	103.599	-21.2308	-20.7671	91.1611	-41.3306	-12.7545	104.211	-40.639	17.9795	130.713	9.52576	18.4474	153.292	-3.28984	41.3143	117.753	15.9319	49.2508	
118	0.983333	95.9638	-6.82619	66.5203	67.7836	-13.8774	41.9778	54.0968	-22.8246	17.891	59.9484	-33.2241	-7.52508	75.3711	25.196	-0.0462549	56.4891	29.356	-19.6714	39.6672	30.2402	-40.546	83.2023	16.5242	-15.4574	63.2453	18.6907	-33.4494	41.6494	19.002	-57.3673	87.7471	-16.0104	-21.5066	71.6601	-40.8328	-12.5901	79.4733	-45.1919	17.8116	105.267	-30.6839	-16.6267	87.2912	-52.1364	-4.18402	96.7625	-49.0781	20.6585	136.714	-1.11513	15.7458	153.775	-11.7016	39.4317	123.59	13.7728	43.5965	
119	0.991667	96.887	-4.79345	61.3038	67.4936	-12.1893	41.0771	55.686	-23.0924	16.8913	58.3455	-38.902	-4.18684	81.7191	20.6848	-6.86689	64.3888	21.7725	-30.413	48.7516	22.6558	-48.9105	86.7041	9.92937	-24.7778	67.4874	10.8532	-41.811	48.4121	9.35475	-62.3825	90.0458	-21.4502	-18.7023	69.3697	-45.6678	-9.95803	75.7567	-47.7562	18.472	105.585	-42.399	-15.5883	82.3933	-55.1318	-0.26307	92.3451	-52.88	26.3893	137.301	-10.6043	15.1537	152.678	-15.3925	37.5515	125.329	9.89683	41.0162	
120	1	99.0742	-2.12455	58.8032	67.1397	-10.9373	36.7641	55.7095	-26.1368	14.2212	57.4184	-43.7125	-3.46381	85.5148	13.4251	-18.6289	68.7694	16.8176	-36.5198	55.4714	14.0946	-55.3426	89.1701	3.50718	-29.1087	73.8761	1.65936	-46.2642	50.8915	2.31682	-68.4603	91.6348	-29.7293	-20.1449	69.3175	-49.1978	-11.4397	76.5622	-52.0893	20.8745	104.214	-49.9868	-13.58	82.0842	-60.6677	-0.588888	90.6553	-56.0702	30.1826	137.459	-15.8259	9.29438	156.221	-20.5885	39.2639	131.518	7.16647	34.8153	
121	1.00833	101.988	-1.35166	53.6883	71.3897	-12.3569	39.9547	56.3137	-29.0726	12.5973	57.0158	-48.9568	-2.19435	91.3065	6.17554	-21.0127	70.1448	9.06301	-42.9757	56.3256	4.86929	-62.7722	97.5914	-8.67962	-32.0601	77.0674	-6.24005	-50.4848	51.4538	-10.0776	-74.4268	94.3868	-39.0157	-21.6212	70.3599	-54.3294	-6.66354	76.6136	-49.3151	25.1764	102.011	-55.9171	-11.8954	80.8761	-61.9493	2.95513	90.9752	-58.0549	33.3308	141.621	-23.5683	7.36959	157.316	-28.8922	34.9588	135.014	-0.424512	28.619	
122	1.01667	104.95	-0.972257	49.9413	72.4122	-13.7773	37.5108	57.7506	-32.3843	16.3223	61.623	-54.2947	1.27123	90.3645	0.425978	-25.9328	71.0465	-1.12597	-45.6927	56.8048	-3.97289	-59.4372	98.6009	-15.9355	-33.1562	77.6295	-19.4554	-51.8293	49.5412	-21.1507	-72.0269	92.7672	-46.7914	-20.0729	69.0687	-57.7041	-2.67437	80.2044	-52.3768	28.9899	99.0494	-59.378	-8.46946	81.2664	-65.544	6.74079	95.8447	-59.3295	36.7399	144.517	-32.0866	4.16163	161.802	-34.4886	36.014	139.719	0.112928	28.6494	
